<?xml version="1.0" encoding="UTF-8"?>
<svg xmlns="http://www.w3.org/2000/svg" width="960" height="440" viewBox="0 0 960 440" role="img" aria-labelledby="title desc">
  <title id="title">SentryLoom GitHub community growth</title>
  <desc id="desc">Time-series lines for GitHub stars and current contributors. Latest values: 2 stars and 3 contributors.</desc>
  <style>
    .background{fill:#0d1117}.plot{fill:#161b22;stroke:#30363d}.grid{stroke:#30363d;stroke-width:1}.axis{stroke:#8b949e;stroke-width:1.2}
    .title{fill:#f0f6fc;font:700 22px "Segoe UI",Arial,sans-serif}.subtitle{fill:#8b949e;font:13px "Segoe UI",Arial,sans-serif}
    .tick{fill:#8b949e;font:11px "Segoe UI",Arial,sans-serif}.legend{fill:#c9d1d9;font:13px "Segoe UI",Arial,sans-serif}
    .stars{fill:none;stroke:#f2cc60;stroke-width:3;stroke-linejoin:round;stroke-linecap:round}
    .contributors{fill:none;stroke:#2f81f7;stroke-width:3;stroke-linejoin:round;stroke-linecap:round}
    .star-dot{fill:#f2cc60}.contributor-dot{fill:#2f81f7}
  </style>
  <rect width="100%" height="100%" rx="12" class="background"/>
  <text x="72" y="30" class="title">SentryLoom community growth</text>
  <text x="932" y="30" text-anchor="end" class="subtitle">Updated 2026-09-21</text>
  <rect x="72" y="54" width="860" height="314" rx="6" class="plot"/>
  <line x1="72" y1="368" x2="932" y2="368" class="grid"/>
      <text x="60" y="372" text-anchor="end" class="tick">0</text>
<line x1="72" y1="305.2" x2="932" y2="305.2" class="grid"/>
      <text x="60" y="309.2" text-anchor="end" class="tick">1</text>
<line x1="72" y1="242.39999999999998" x2="932" y2="242.39999999999998" class="grid"/>
      <text x="60" y="246.39999999999998" text-anchor="end" class="tick">2</text>
<line x1="72" y1="179.6" x2="932" y2="179.6" class="grid"/>
      <text x="60" y="183.6" text-anchor="end" class="tick">3</text>
<line x1="72" y1="116.79999999999998" x2="932" y2="116.79999999999998" class="grid"/>
      <text x="60" y="120.79999999999998" text-anchor="end" class="tick">4</text>
<line x1="72" y1="54" x2="932" y2="54" class="grid"/>
      <text x="60" y="58" text-anchor="end" class="tick">5</text>
  <line x1="72" y1="368" x2="932" y2="368" class="axis"/>
  <polyline points="72.0,368.0 82.9,305.2 93.8,305.2 104.7,305.2 115.5,305.2 126.4,305.2 137.3,305.2 148.2,305.2 159.1,305.2 170.0,305.2 180.9,305.2 191.7,305.2 202.6,305.2 213.5,305.2 224.4,305.2 235.3,305.2 246.2,305.2 257.1,305.2 267.9,305.2 278.8,305.2 289.7,305.2 300.6,305.2 311.5,305.2 322.4,305.2 333.3,242.4 344.2,242.4 355.0,242.4 365.9,242.4 376.8,242.4 387.7,242.4 398.6,242.4 409.5,242.4 420.4,242.4 431.2,242.4 442.1,242.4 453.0,242.4 463.9,242.4 474.8,242.4 485.7,242.4 496.6,242.4 507.4,242.4 518.3,242.4 529.2,242.4 540.1,242.4 551.0,242.4 561.9,242.4 572.8,242.4 583.6,242.4 594.5,242.4 605.4,242.4 616.3,242.4 627.2,242.4 638.1,242.4 649.0,242.4 659.8,242.4 670.7,242.4 681.6,242.4 692.5,242.4 703.4,242.4 714.3,242.4 725.2,242.4 736.1,242.4 746.9,242.4 757.8,242.4 768.7,242.4 779.6,242.4 790.5,242.4 801.4,242.4 812.3,242.4 823.1,242.4 834.0,242.4 844.9,242.4 855.8,242.4 866.7,242.4 877.6,242.4 888.5,242.4 899.3,242.4 910.2,242.4 921.1,242.4 932.0,242.4" class="stars"/>
  <polyline points="72.0,305.2 82.9,305.2 93.8,242.4 104.7,242.4 115.5,242.4 126.4,179.6 137.3,179.6 148.2,179.6 159.1,179.6 170.0,179.6 180.9,179.6 191.7,179.6 202.6,179.6 213.5,179.6 224.4,179.6 235.3,179.6 246.2,179.6 257.1,179.6 267.9,179.6 278.8,179.6 289.7,179.6 300.6,179.6 311.5,179.6 322.4,179.6 333.3,179.6 344.2,179.6 355.0,179.6 365.9,179.6 376.8,179.6 387.7,179.6 398.6,179.6 409.5,179.6 420.4,179.6 431.2,179.6 442.1,179.6 453.0,179.6 463.9,179.6 474.8,179.6 485.7,179.6 496.6,179.6 507.4,179.6 518.3,179.6 529.2,179.6 540.1,179.6 551.0,179.6 561.9,179.6 572.8,179.6 583.6,179.6 594.5,179.6 605.4,179.6 616.3,179.6 627.2,179.6 638.1,179.6 649.0,179.6 659.8,179.6 670.7,179.6 681.6,179.6 692.5,179.6 703.4,179.6 714.3,179.6 725.2,179.6 736.1,179.6 746.9,179.6 757.8,179.6 768.7,179.6 779.6,179.6 790.5,179.6 801.4,179.6 812.3,179.6 823.1,179.6 834.0,179.6 844.9,179.6 855.8,179.6 866.7,179.6 877.6,179.6 888.5,179.6 899.3,179.6 910.2,179.6 921.1,179.6 932.0,179.6" class="contributors"/>
  <circle cx="72" cy="368" r="3.5" class="star-dot"/>
  <circle cx="82.88607594936708" cy="305.2" r="3.5" class="star-dot"/>
  <circle cx="93.77215189873418" cy="305.2" r="3.5" class="star-dot"/>
  <circle cx="104.65822784810126" cy="305.2" r="3.5" class="star-dot"/>
  <circle cx="115.54430379746836" cy="305.2" r="3.5" class="star-dot"/>
  <circle cx="126.43037974683546" cy="305.2" r="3.5" class="star-dot"/>
  <circle cx="137.31645569620252" cy="305.2" r="3.5" class="star-dot"/>
  <circle cx="148.20253164556962" cy="305.2" r="3.5" class="star-dot"/>
  <circle cx="159.08860759493672" cy="305.2" r="3.5" class="star-dot"/>
  <circle cx="169.9746835443038" cy="305.2" r="3.5" class="star-dot"/>
  <circle cx="180.8607594936709" cy="305.2" r="3.5" class="star-dot"/>
  <circle cx="191.74683544303798" cy="305.2" r="3.5" class="star-dot"/>
  <circle cx="202.63291139240508" cy="305.2" r="3.5" class="star-dot"/>
  <circle cx="213.51898734177215" cy="305.2" r="3.5" class="star-dot"/>
  <circle cx="224.40506329113924" cy="305.2" r="3.5" class="star-dot"/>
  <circle cx="235.29113924050634" cy="305.2" r="3.5" class="star-dot"/>
  <circle cx="246.1772151898734" cy="305.2" r="3.5" class="star-dot"/>
  <circle cx="257.0632911392405" cy="305.2" r="3.5" class="star-dot"/>
  <circle cx="267.9493670886076" cy="305.2" r="3.5" class="star-dot"/>
  <circle cx="278.8354430379747" cy="305.2" r="3.5" class="star-dot"/>
  <circle cx="289.7215189873418" cy="305.2" r="3.5" class="star-dot"/>
  <circle cx="300.60759493670884" cy="305.2" r="3.5" class="star-dot"/>
  <circle cx="311.49367088607596" cy="305.2" r="3.5" class="star-dot"/>
  <circle cx="322.37974683544303" cy="305.2" r="3.5" class="star-dot"/>
  <circle cx="333.26582278481015" cy="242.39999999999998" r="3.5" class="star-dot"/>
  <circle cx="344.1518987341772" cy="242.39999999999998" r="3.5" class="star-dot"/>
  <circle cx="355.0379746835443" cy="242.39999999999998" r="3.5" class="star-dot"/>
  <circle cx="365.92405063291136" cy="242.39999999999998" r="3.5" class="star-dot"/>
  <circle cx="376.8101265822785" cy="242.39999999999998" r="3.5" class="star-dot"/>
  <circle cx="387.69620253164555" cy="242.39999999999998" r="3.5" class="star-dot"/>
  <circle cx="398.5822784810127" cy="242.39999999999998" r="3.5" class="star-dot"/>
  <circle cx="409.46835443037975" cy="242.39999999999998" r="3.5" class="star-dot"/>
  <circle cx="420.3544303797468" cy="242.39999999999998" r="3.5" class="star-dot"/>
  <circle cx="431.24050632911394" cy="242.39999999999998" r="3.5" class="star-dot"/>
  <circle cx="442.126582278481" cy="242.39999999999998" r="3.5" class="star-dot"/>
  <circle cx="453.0126582278481" cy="242.39999999999998" r="3.5" class="star-dot"/>
  <circle cx="463.8987341772152" cy="242.39999999999998" r="3.5" class="star-dot"/>
  <circle cx="474.7848101265823" cy="242.39999999999998" r="3.5" class="star-dot"/>
  <circle cx="485.6708860759494" cy="242.39999999999998" r="3.5" class="star-dot"/>
  <circle cx="496.55696202531647" cy="242.39999999999998" r="3.5" class="star-dot"/>
  <circle cx="507.4430379746836" cy="242.39999999999998" r="3.5" class="star-dot"/>
  <circle cx="518.3291139240506" cy="242.39999999999998" r="3.5" class="star-dot"/>
  <circle cx="529.2151898734177" cy="242.39999999999998" r="3.5" class="star-dot"/>
  <circle cx="540.1012658227849" cy="242.39999999999998" r="3.5" class="star-dot"/>
  <circle cx="550.9873417721519" cy="242.39999999999998" r="3.5" class="star-dot"/>
  <circle cx="561.873417721519" cy="242.39999999999998" r="3.5" class="star-dot"/>
  <circle cx="572.7594936708861" cy="242.39999999999998" r="3.5" class="star-dot"/>
  <circle cx="583.6455696202531" cy="242.39999999999998" r="3.5" class="star-dot"/>
  <circle cx="594.5316455696203" cy="242.39999999999998" r="3.5" class="star-dot"/>
  <circle cx="605.4177215189873" cy="242.39999999999998" r="3.5" class="star-dot"/>
  <circle cx="616.3037974683544" cy="242.39999999999998" r="3.5" class="star-dot"/>
  <circle cx="627.1898734177215" cy="242.39999999999998" r="3.5" class="star-dot"/>
  <circle cx="638.0759493670886" cy="242.39999999999998" r="3.5" class="star-dot"/>
  <circle cx="648.9620253164558" cy="242.39999999999998" r="3.5" class="star-dot"/>
  <circle cx="659.8481012658227" cy="242.39999999999998" r="3.5" class="star-dot"/>
  <circle cx="670.7341772151899" cy="242.39999999999998" r="3.5" class="star-dot"/>
  <circle cx="681.620253164557" cy="242.39999999999998" r="3.5" class="star-dot"/>
  <circle cx="692.506329113924" cy="242.39999999999998" r="3.5" class="star-dot"/>
  <circle cx="703.3924050632911" cy="242.39999999999998" r="3.5" class="star-dot"/>
  <circle cx="714.2784810126582" cy="242.39999999999998" r="3.5" class="star-dot"/>
  <circle cx="725.1645569620254" cy="242.39999999999998" r="3.5" class="star-dot"/>
  <circle cx="736.0506329113924" cy="242.39999999999998" r="3.5" class="star-dot"/>
  <circle cx="746.9367088607595" cy="242.39999999999998" r="3.5" class="star-dot"/>
  <circle cx="757.8227848101266" cy="242.39999999999998" r="3.5" class="star-dot"/>
  <circle cx="768.7088607594936" cy="242.39999999999998" r="3.5" class="star-dot"/>
  <circle cx="779.5949367088608" cy="242.39999999999998" r="3.5" class="star-dot"/>
  <circle cx="790.4810126582279" cy="242.39999999999998" r="3.5" class="star-dot"/>
  <circle cx="801.367088607595" cy="242.39999999999998" r="3.5" class="star-dot"/>
  <circle cx="812.253164556962" cy="242.39999999999998" r="3.5" class="star-dot"/>
  <circle cx="823.1392405063291" cy="242.39999999999998" r="3.5" class="star-dot"/>
  <circle cx="834.0253164556962" cy="242.39999999999998" r="3.5" class="star-dot"/>
  <circle cx="844.9113924050633" cy="242.39999999999998" r="3.5" class="star-dot"/>
  <circle cx="855.7974683544304" cy="242.39999999999998" r="3.5" class="star-dot"/>
  <circle cx="866.6835443037975" cy="242.39999999999998" r="3.5" class="star-dot"/>
  <circle cx="877.5696202531645" cy="242.39999999999998" r="3.5" class="star-dot"/>
  <circle cx="888.4556962025316" cy="242.39999999999998" r="3.5" class="star-dot"/>
  <circle cx="899.3417721518988" cy="242.39999999999998" r="3.5" class="star-dot"/>
  <circle cx="910.2278481012657" cy="242.39999999999998" r="3.5" class="star-dot"/>
  <circle cx="921.1139240506329" cy="242.39999999999998" r="3.5" class="star-dot"/>
  <circle cx="932" cy="242.39999999999998" r="3.5" class="star-dot"/>
  <circle cx="72" cy="305.2" r="3.5" class="contributor-dot"/>
  <circle cx="82.88607594936708" cy="305.2" r="3.5" class="contributor-dot"/>
  <circle cx="93.77215189873418" cy="242.39999999999998" r="3.5" class="contributor-dot"/>
  <circle cx="104.65822784810126" cy="242.39999999999998" r="3.5" class="contributor-dot"/>
  <circle cx="115.54430379746836" cy="242.39999999999998" r="3.5" class="contributor-dot"/>
  <circle cx="126.43037974683546" cy="179.6" r="3.5" class="contributor-dot"/>
  <circle cx="137.31645569620252" cy="179.6" r="3.5" class="contributor-dot"/>
  <circle cx="148.20253164556962" cy="179.6" r="3.5" class="contributor-dot"/>
  <circle cx="159.08860759493672" cy="179.6" r="3.5" class="contributor-dot"/>
  <circle cx="169.9746835443038" cy="179.6" r="3.5" class="contributor-dot"/>
  <circle cx="180.8607594936709" cy="179.6" r="3.5" class="contributor-dot"/>
  <circle cx="191.74683544303798" cy="179.6" r="3.5" class="contributor-dot"/>
  <circle cx="202.63291139240508" cy="179.6" r="3.5" class="contributor-dot"/>
  <circle cx="213.51898734177215" cy="179.6" r="3.5" class="contributor-dot"/>
  <circle cx="224.40506329113924" cy="179.6" r="3.5" class="contributor-dot"/>
  <circle cx="235.29113924050634" cy="179.6" r="3.5" class="contributor-dot"/>
  <circle cx="246.1772151898734" cy="179.6" r="3.5" class="contributor-dot"/>
  <circle cx="257.0632911392405" cy="179.6" r="3.5" class="contributor-dot"/>
  <circle cx="267.9493670886076" cy="179.6" r="3.5" class="contributor-dot"/>
  <circle cx="278.8354430379747" cy="179.6" r="3.5" class="contributor-dot"/>
  <circle cx="289.7215189873418" cy="179.6" r="3.5" class="contributor-dot"/>
  <circle cx="300.60759493670884" cy="179.6" r="3.5" class="contributor-dot"/>
  <circle cx="311.49367088607596" cy="179.6" r="3.5" class="contributor-dot"/>
  <circle cx="322.37974683544303" cy="179.6" r="3.5" class="contributor-dot"/>
  <circle cx="333.26582278481015" cy="179.6" r="3.5" class="contributor-dot"/>
  <circle cx="344.1518987341772" cy="179.6" r="3.5" class="contributor-dot"/>
  <circle cx="355.0379746835443" cy="179.6" r="3.5" class="contributor-dot"/>
  <circle cx="365.92405063291136" cy="179.6" r="3.5" class="contributor-dot"/>
  <circle cx="376.8101265822785" cy="179.6" r="3.5" class="contributor-dot"/>
  <circle cx="387.69620253164555" cy="179.6" r="3.5" class="contributor-dot"/>
  <circle cx="398.5822784810127" cy="179.6" r="3.5" class="contributor-dot"/>
  <circle cx="409.46835443037975" cy="179.6" r="3.5" class="contributor-dot"/>
  <circle cx="420.3544303797468" cy="179.6" r="3.5" class="contributor-dot"/>
  <circle cx="431.24050632911394" cy="179.6" r="3.5" class="contributor-dot"/>
  <circle cx="442.126582278481" cy="179.6" r="3.5" class="contributor-dot"/>
  <circle cx="453.0126582278481" cy="179.6" r="3.5" class="contributor-dot"/>
  <circle cx="463.8987341772152" cy="179.6" r="3.5" class="contributor-dot"/>
  <circle cx="474.7848101265823" cy="179.6" r="3.5" class="contributor-dot"/>
  <circle cx="485.6708860759494" cy="179.6" r="3.5" class="contributor-dot"/>
  <circle cx="496.55696202531647" cy="179.6" r="3.5" class="contributor-dot"/>
  <circle cx="507.4430379746836" cy="179.6" r="3.5" class="contributor-dot"/>
  <circle cx="518.3291139240506" cy="179.6" r="3.5" class="contributor-dot"/>
  <circle cx="529.2151898734177" cy="179.6" r="3.5" class="contributor-dot"/>
  <circle cx="540.1012658227849" cy="179.6" r="3.5" class="contributor-dot"/>
  <circle cx="550.9873417721519" cy="179.6" r="3.5" class="contributor-dot"/>
  <circle cx="561.873417721519" cy="179.6" r="3.5" class="contributor-dot"/>
  <circle cx="572.7594936708861" cy="179.6" r="3.5" class="contributor-dot"/>
  <circle cx="583.6455696202531" cy="179.6" r="3.5" class="contributor-dot"/>
  <circle cx="594.5316455696203" cy="179.6" r="3.5" class="contributor-dot"/>
  <circle cx="605.4177215189873" cy="179.6" r="3.5" class="contributor-dot"/>
  <circle cx="616.3037974683544" cy="179.6" r="3.5" class="contributor-dot"/>
  <circle cx="627.1898734177215" cy="179.6" r="3.5" class="contributor-dot"/>
  <circle cx="638.0759493670886" cy="179.6" r="3.5" class="contributor-dot"/>
  <circle cx="648.9620253164558" cy="179.6" r="3.5" class="contributor-dot"/>
  <circle cx="659.8481012658227" cy="179.6" r="3.5" class="contributor-dot"/>
  <circle cx="670.7341772151899" cy="179.6" r="3.5" class="contributor-dot"/>
  <circle cx="681.620253164557" cy="179.6" r="3.5" class="contributor-dot"/>
  <circle cx="692.506329113924" cy="179.6" r="3.5" class="contributor-dot"/>
  <circle cx="703.3924050632911" cy="179.6" r="3.5" class="contributor-dot"/>
  <circle cx="714.2784810126582" cy="179.6" r="3.5" class="contributor-dot"/>
  <circle cx="725.1645569620254" cy="179.6" r="3.5" class="contributor-dot"/>
  <circle cx="736.0506329113924" cy="179.6" r="3.5" class="contributor-dot"/>
  <circle cx="746.9367088607595" cy="179.6" r="3.5" class="contributor-dot"/>
  <circle cx="757.8227848101266" cy="179.6" r="3.5" class="contributor-dot"/>
  <circle cx="768.7088607594936" cy="179.6" r="3.5" class="contributor-dot"/>
  <circle cx="779.5949367088608" cy="179.6" r="3.5" class="contributor-dot"/>
  <circle cx="790.4810126582279" cy="179.6" r="3.5" class="contributor-dot"/>
  <circle cx="801.367088607595" cy="179.6" r="3.5" class="contributor-dot"/>
  <circle cx="812.253164556962" cy="179.6" r="3.5" class="contributor-dot"/>
  <circle cx="823.1392405063291" cy="179.6" r="3.5" class="contributor-dot"/>
  <circle cx="834.0253164556962" cy="179.6" r="3.5" class="contributor-dot"/>
  <circle cx="844.9113924050633" cy="179.6" r="3.5" class="contributor-dot"/>
  <circle cx="855.7974683544304" cy="179.6" r="3.5" class="contributor-dot"/>
  <circle cx="866.6835443037975" cy="179.6" r="3.5" class="contributor-dot"/>
  <circle cx="877.5696202531645" cy="179.6" r="3.5" class="contributor-dot"/>
  <circle cx="888.4556962025316" cy="179.6" r="3.5" class="contributor-dot"/>
  <circle cx="899.3417721518988" cy="179.6" r="3.5" class="contributor-dot"/>
  <circle cx="910.2278481012657" cy="179.6" r="3.5" class="contributor-dot"/>
  <circle cx="921.1139240506329" cy="179.6" r="3.5" class="contributor-dot"/>
  <circle cx="932" cy="179.6" r="3.5" class="contributor-dot"/>
  <text x="72" y="408" text-anchor="middle" class="tick">2026-07-04</text>
<text x="496.55696202531647" y="408" text-anchor="middle" class="tick">2026-08-12</text>
<text x="932" y="408" text-anchor="middle" class="tick">2026-09-21</text>
  <circle cx="72" cy="430" r="5" class="star-dot"/>
  <text x="84" y="434" class="legend">GitHub stars (2)</text>
  <circle cx="247" cy="430" r="5" class="contributor-dot"/>
  <text x="259" y="434" class="legend">Current contributors (3)</text>
</svg>
