<?xml version="1.0" encoding="UTF-8"?>
<svg xmlns="http://www.w3.org/2000/svg" width="960" height="440" viewBox="0 0 960 440" role="img" aria-labelledby="title desc">
  <title id="title">SentryLoom GitHub community growth</title>
  <desc id="desc">Time-series lines for GitHub stars and current contributors. Latest values: 2 stars and 3 contributors.</desc>
  <style>
    .background{fill:#0d1117}.plot{fill:#161b22;stroke:#30363d}.grid{stroke:#30363d;stroke-width:1}.axis{stroke:#8b949e;stroke-width:1.2}
    .title{fill:#f0f6fc;font:700 22px "Segoe UI",Arial,sans-serif}.subtitle{fill:#8b949e;font:13px "Segoe UI",Arial,sans-serif}
    .tick{fill:#8b949e;font:11px "Segoe UI",Arial,sans-serif}.legend{fill:#c9d1d9;font:13px "Segoe UI",Arial,sans-serif}
    .stars{fill:none;stroke:#f2cc60;stroke-width:3;stroke-linejoin:round;stroke-linecap:round}
    .contributors{fill:none;stroke:#2f81f7;stroke-width:3;stroke-linejoin:round;stroke-linecap:round}
    .star-dot{fill:#f2cc60}.contributor-dot{fill:#2f81f7}
  </style>
  <rect width="100%" height="100%" rx="12" class="background"/>
  <text x="72" y="30" class="title">SentryLoom community growth</text>
  <text x="932" y="30" text-anchor="end" class="subtitle">Updated 2026-08-09</text>
  <rect x="72" y="54" width="860" height="314" rx="6" class="plot"/>
  <line x1="72" y1="368" x2="932" y2="368" class="grid"/>
      <text x="60" y="372" text-anchor="end" class="tick">0</text>
<line x1="72" y1="305.2" x2="932" y2="305.2" class="grid"/>
      <text x="60" y="309.2" text-anchor="end" class="tick">1</text>
<line x1="72" y1="242.39999999999998" x2="932" y2="242.39999999999998" class="grid"/>
      <text x="60" y="246.39999999999998" text-anchor="end" class="tick">2</text>
<line x1="72" y1="179.6" x2="932" y2="179.6" class="grid"/>
      <text x="60" y="183.6" text-anchor="end" class="tick">3</text>
<line x1="72" y1="116.79999999999998" x2="932" y2="116.79999999999998" class="grid"/>
      <text x="60" y="120.79999999999998" text-anchor="end" class="tick">4</text>
<line x1="72" y1="54" x2="932" y2="54" class="grid"/>
      <text x="60" y="58" text-anchor="end" class="tick">5</text>
  <line x1="72" y1="368" x2="932" y2="368" class="axis"/>
  <polyline points="72.0,368.0 95.9,305.2 119.8,305.2 143.7,305.2 167.6,305.2 191.4,305.2 215.3,305.2 239.2,305.2 263.1,305.2 287.0,305.2 310.9,305.2 334.8,305.2 358.7,305.2 382.6,305.2 406.4,305.2 430.3,305.2 454.2,305.2 478.1,305.2 502.0,305.2 525.9,305.2 549.8,305.2 573.7,305.2 597.6,305.2 621.4,305.2 645.3,242.4 669.2,242.4 693.1,242.4 717.0,242.4 740.9,242.4 764.8,242.4 788.7,242.4 812.6,242.4 836.4,242.4 860.3,242.4 884.2,242.4 908.1,242.4 932.0,242.4" class="stars"/>
  <polyline points="72.0,305.2 95.9,305.2 119.8,242.4 143.7,242.4 167.6,242.4 191.4,179.6 215.3,179.6 239.2,179.6 263.1,179.6 287.0,179.6 310.9,179.6 334.8,179.6 358.7,179.6 382.6,179.6 406.4,179.6 430.3,179.6 454.2,179.6 478.1,179.6 502.0,179.6 525.9,179.6 549.8,179.6 573.7,179.6 597.6,179.6 621.4,179.6 645.3,179.6 669.2,179.6 693.1,179.6 717.0,179.6 740.9,179.6 764.8,179.6 788.7,179.6 812.6,179.6 836.4,179.6 860.3,179.6 884.2,179.6 908.1,179.6 932.0,179.6" class="contributors"/>
  <circle cx="72" cy="368" r="3.5" class="star-dot"/>
  <circle cx="95.88888888888889" cy="305.2" r="3.5" class="star-dot"/>
  <circle cx="119.77777777777777" cy="305.2" r="3.5" class="star-dot"/>
  <circle cx="143.66666666666666" cy="305.2" r="3.5" class="star-dot"/>
  <circle cx="167.55555555555554" cy="305.2" r="3.5" class="star-dot"/>
  <circle cx="191.44444444444446" cy="305.2" r="3.5" class="star-dot"/>
  <circle cx="215.33333333333331" cy="305.2" r="3.5" class="star-dot"/>
  <circle cx="239.22222222222223" cy="305.2" r="3.5" class="star-dot"/>
  <circle cx="263.1111111111111" cy="305.2" r="3.5" class="star-dot"/>
  <circle cx="287" cy="305.2" r="3.5" class="star-dot"/>
  <circle cx="310.8888888888889" cy="305.2" r="3.5" class="star-dot"/>
  <circle cx="334.77777777777777" cy="305.2" r="3.5" class="star-dot"/>
  <circle cx="358.66666666666663" cy="305.2" r="3.5" class="star-dot"/>
  <circle cx="382.55555555555554" cy="305.2" r="3.5" class="star-dot"/>
  <circle cx="406.44444444444446" cy="305.2" r="3.5" class="star-dot"/>
  <circle cx="430.33333333333337" cy="305.2" r="3.5" class="star-dot"/>
  <circle cx="454.22222222222223" cy="305.2" r="3.5" class="star-dot"/>
  <circle cx="478.1111111111111" cy="305.2" r="3.5" class="star-dot"/>
  <circle cx="502" cy="305.2" r="3.5" class="star-dot"/>
  <circle cx="525.8888888888889" cy="305.2" r="3.5" class="star-dot"/>
  <circle cx="549.7777777777778" cy="305.2" r="3.5" class="star-dot"/>
  <circle cx="573.6666666666667" cy="305.2" r="3.5" class="star-dot"/>
  <circle cx="597.5555555555555" cy="305.2" r="3.5" class="star-dot"/>
  <circle cx="621.4444444444445" cy="305.2" r="3.5" class="star-dot"/>
  <circle cx="645.3333333333333" cy="242.39999999999998" r="3.5" class="star-dot"/>
  <circle cx="669.2222222222222" cy="242.39999999999998" r="3.5" class="star-dot"/>
  <circle cx="693.1111111111111" cy="242.39999999999998" r="3.5" class="star-dot"/>
  <circle cx="717" cy="242.39999999999998" r="3.5" class="star-dot"/>
  <circle cx="740.8888888888889" cy="242.39999999999998" r="3.5" class="star-dot"/>
  <circle cx="764.7777777777778" cy="242.39999999999998" r="3.5" class="star-dot"/>
  <circle cx="788.6666666666667" cy="242.39999999999998" r="3.5" class="star-dot"/>
  <circle cx="812.5555555555555" cy="242.39999999999998" r="3.5" class="star-dot"/>
  <circle cx="836.4444444444445" cy="242.39999999999998" r="3.5" class="star-dot"/>
  <circle cx="860.3333333333333" cy="242.39999999999998" r="3.5" class="star-dot"/>
  <circle cx="884.2222222222222" cy="242.39999999999998" r="3.5" class="star-dot"/>
  <circle cx="908.1111111111111" cy="242.39999999999998" r="3.5" class="star-dot"/>
  <circle cx="932" cy="242.39999999999998" r="3.5" class="star-dot"/>
  <circle cx="72" cy="305.2" r="3.5" class="contributor-dot"/>
  <circle cx="95.88888888888889" cy="305.2" r="3.5" class="contributor-dot"/>
  <circle cx="119.77777777777777" cy="242.39999999999998" r="3.5" class="contributor-dot"/>
  <circle cx="143.66666666666666" cy="242.39999999999998" r="3.5" class="contributor-dot"/>
  <circle cx="167.55555555555554" cy="242.39999999999998" r="3.5" class="contributor-dot"/>
  <circle cx="191.44444444444446" cy="179.6" r="3.5" class="contributor-dot"/>
  <circle cx="215.33333333333331" cy="179.6" r="3.5" class="contributor-dot"/>
  <circle cx="239.22222222222223" cy="179.6" r="3.5" class="contributor-dot"/>
  <circle cx="263.1111111111111" cy="179.6" r="3.5" class="contributor-dot"/>
  <circle cx="287" cy="179.6" r="3.5" class="contributor-dot"/>
  <circle cx="310.8888888888889" cy="179.6" r="3.5" class="contributor-dot"/>
  <circle cx="334.77777777777777" cy="179.6" r="3.5" class="contributor-dot"/>
  <circle cx="358.66666666666663" cy="179.6" r="3.5" class="contributor-dot"/>
  <circle cx="382.55555555555554" cy="179.6" r="3.5" class="contributor-dot"/>
  <circle cx="406.44444444444446" cy="179.6" r="3.5" class="contributor-dot"/>
  <circle cx="430.33333333333337" cy="179.6" r="3.5" class="contributor-dot"/>
  <circle cx="454.22222222222223" cy="179.6" r="3.5" class="contributor-dot"/>
  <circle cx="478.1111111111111" cy="179.6" r="3.5" class="contributor-dot"/>
  <circle cx="502" cy="179.6" r="3.5" class="contributor-dot"/>
  <circle cx="525.8888888888889" cy="179.6" r="3.5" class="contributor-dot"/>
  <circle cx="549.7777777777778" cy="179.6" r="3.5" class="contributor-dot"/>
  <circle cx="573.6666666666667" cy="179.6" r="3.5" class="contributor-dot"/>
  <circle cx="597.5555555555555" cy="179.6" r="3.5" class="contributor-dot"/>
  <circle cx="621.4444444444445" cy="179.6" r="3.5" class="contributor-dot"/>
  <circle cx="645.3333333333333" cy="179.6" r="3.5" class="contributor-dot"/>
  <circle cx="669.2222222222222" cy="179.6" r="3.5" class="contributor-dot"/>
  <circle cx="693.1111111111111" cy="179.6" r="3.5" class="contributor-dot"/>
  <circle cx="717" cy="179.6" r="3.5" class="contributor-dot"/>
  <circle cx="740.8888888888889" cy="179.6" r="3.5" class="contributor-dot"/>
  <circle cx="764.7777777777778" cy="179.6" r="3.5" class="contributor-dot"/>
  <circle cx="788.6666666666667" cy="179.6" r="3.5" class="contributor-dot"/>
  <circle cx="812.5555555555555" cy="179.6" r="3.5" class="contributor-dot"/>
  <circle cx="836.4444444444445" cy="179.6" r="3.5" class="contributor-dot"/>
  <circle cx="860.3333333333333" cy="179.6" r="3.5" class="contributor-dot"/>
  <circle cx="884.2222222222222" cy="179.6" r="3.5" class="contributor-dot"/>
  <circle cx="908.1111111111111" cy="179.6" r="3.5" class="contributor-dot"/>
  <circle cx="932" cy="179.6" r="3.5" class="contributor-dot"/>
  <text x="72" y="408" text-anchor="middle" class="tick">2026-07-04</text>
<text x="502" y="408" text-anchor="middle" class="tick">2026-07-22</text>
<text x="932" y="408" text-anchor="middle" class="tick">2026-08-09</text>
  <circle cx="72" cy="430" r="5" class="star-dot"/>
  <text x="84" y="434" class="legend">GitHub stars (2)</text>
  <circle cx="247" cy="430" r="5" class="contributor-dot"/>
  <text x="259" y="434" class="legend">Current contributors (3)</text>
</svg>
