<?xml version="1.0" encoding="UTF-8"?>
<svg xmlns="http://www.w3.org/2000/svg" width="960" height="440" viewBox="0 0 960 440" role="img" aria-labelledby="title desc">
  <title id="title">SentryLoom GitHub community growth</title>
  <desc id="desc">Time-series lines for GitHub stars and current contributors. Latest values: 2 stars and 3 contributors.</desc>
  <style>
    .background{fill:#0d1117}.plot{fill:#161b22;stroke:#30363d}.grid{stroke:#30363d;stroke-width:1}.axis{stroke:#8b949e;stroke-width:1.2}
    .title{fill:#f0f6fc;font:700 22px "Segoe UI",Arial,sans-serif}.subtitle{fill:#8b949e;font:13px "Segoe UI",Arial,sans-serif}
    .tick{fill:#8b949e;font:11px "Segoe UI",Arial,sans-serif}.legend{fill:#c9d1d9;font:13px "Segoe UI",Arial,sans-serif}
    .stars{fill:none;stroke:#f2cc60;stroke-width:3;stroke-linejoin:round;stroke-linecap:round}
    .contributors{fill:none;stroke:#2f81f7;stroke-width:3;stroke-linejoin:round;stroke-linecap:round}
    .star-dot{fill:#f2cc60}.contributor-dot{fill:#2f81f7}
  </style>
  <rect width="100%" height="100%" rx="12" class="background"/>
  <text x="72" y="30" class="title">SentryLoom community growth</text>
  <text x="932" y="30" text-anchor="end" class="subtitle">Updated 2026-08-16</text>
  <rect x="72" y="54" width="860" height="314" rx="6" class="plot"/>
  <line x1="72" y1="368" x2="932" y2="368" class="grid"/>
      <text x="60" y="372" text-anchor="end" class="tick">0</text>
<line x1="72" y1="305.2" x2="932" y2="305.2" class="grid"/>
      <text x="60" y="309.2" text-anchor="end" class="tick">1</text>
<line x1="72" y1="242.39999999999998" x2="932" y2="242.39999999999998" class="grid"/>
      <text x="60" y="246.39999999999998" text-anchor="end" class="tick">2</text>
<line x1="72" y1="179.6" x2="932" y2="179.6" class="grid"/>
      <text x="60" y="183.6" text-anchor="end" class="tick">3</text>
<line x1="72" y1="116.79999999999998" x2="932" y2="116.79999999999998" class="grid"/>
      <text x="60" y="120.79999999999998" text-anchor="end" class="tick">4</text>
<line x1="72" y1="54" x2="932" y2="54" class="grid"/>
      <text x="60" y="58" text-anchor="end" class="tick">5</text>
  <line x1="72" y1="368" x2="932" y2="368" class="axis"/>
  <polyline points="72.0,368.0 92.0,305.2 112.0,305.2 132.0,305.2 152.0,305.2 172.0,305.2 192.0,305.2 212.0,305.2 232.0,305.2 252.0,305.2 272.0,305.2 292.0,305.2 312.0,305.2 332.0,305.2 352.0,305.2 372.0,305.2 392.0,305.2 412.0,305.2 432.0,305.2 452.0,305.2 472.0,305.2 492.0,305.2 512.0,305.2 532.0,305.2 552.0,242.4 572.0,242.4 592.0,242.4 612.0,242.4 632.0,242.4 652.0,242.4 672.0,242.4 692.0,242.4 712.0,242.4 732.0,242.4 752.0,242.4 772.0,242.4 792.0,242.4 812.0,242.4 832.0,242.4 852.0,242.4 872.0,242.4 892.0,242.4 912.0,242.4 932.0,242.4" class="stars"/>
  <polyline points="72.0,305.2 92.0,305.2 112.0,242.4 132.0,242.4 152.0,242.4 172.0,179.6 192.0,179.6 212.0,179.6 232.0,179.6 252.0,179.6 272.0,179.6 292.0,179.6 312.0,179.6 332.0,179.6 352.0,179.6 372.0,179.6 392.0,179.6 412.0,179.6 432.0,179.6 452.0,179.6 472.0,179.6 492.0,179.6 512.0,179.6 532.0,179.6 552.0,179.6 572.0,179.6 592.0,179.6 612.0,179.6 632.0,179.6 652.0,179.6 672.0,179.6 692.0,179.6 712.0,179.6 732.0,179.6 752.0,179.6 772.0,179.6 792.0,179.6 812.0,179.6 832.0,179.6 852.0,179.6 872.0,179.6 892.0,179.6 912.0,179.6 932.0,179.6" class="contributors"/>
  <circle cx="72" cy="368" r="3.5" class="star-dot"/>
  <circle cx="92" cy="305.2" r="3.5" class="star-dot"/>
  <circle cx="112" cy="305.2" r="3.5" class="star-dot"/>
  <circle cx="132" cy="305.2" r="3.5" class="star-dot"/>
  <circle cx="152" cy="305.2" r="3.5" class="star-dot"/>
  <circle cx="172" cy="305.2" r="3.5" class="star-dot"/>
  <circle cx="192" cy="305.2" r="3.5" class="star-dot"/>
  <circle cx="212" cy="305.2" r="3.5" class="star-dot"/>
  <circle cx="232" cy="305.2" r="3.5" class="star-dot"/>
  <circle cx="252" cy="305.2" r="3.5" class="star-dot"/>
  <circle cx="272" cy="305.2" r="3.5" class="star-dot"/>
  <circle cx="292" cy="305.2" r="3.5" class="star-dot"/>
  <circle cx="312" cy="305.2" r="3.5" class="star-dot"/>
  <circle cx="332" cy="305.2" r="3.5" class="star-dot"/>
  <circle cx="352" cy="305.2" r="3.5" class="star-dot"/>
  <circle cx="372" cy="305.2" r="3.5" class="star-dot"/>
  <circle cx="392" cy="305.2" r="3.5" class="star-dot"/>
  <circle cx="412" cy="305.2" r="3.5" class="star-dot"/>
  <circle cx="432" cy="305.2" r="3.5" class="star-dot"/>
  <circle cx="452" cy="305.2" r="3.5" class="star-dot"/>
  <circle cx="472" cy="305.2" r="3.5" class="star-dot"/>
  <circle cx="492" cy="305.2" r="3.5" class="star-dot"/>
  <circle cx="512" cy="305.2" r="3.5" class="star-dot"/>
  <circle cx="532" cy="305.2" r="3.5" class="star-dot"/>
  <circle cx="552" cy="242.39999999999998" r="3.5" class="star-dot"/>
  <circle cx="572" cy="242.39999999999998" r="3.5" class="star-dot"/>
  <circle cx="592" cy="242.39999999999998" r="3.5" class="star-dot"/>
  <circle cx="612" cy="242.39999999999998" r="3.5" class="star-dot"/>
  <circle cx="632" cy="242.39999999999998" r="3.5" class="star-dot"/>
  <circle cx="652" cy="242.39999999999998" r="3.5" class="star-dot"/>
  <circle cx="672" cy="242.39999999999998" r="3.5" class="star-dot"/>
  <circle cx="692" cy="242.39999999999998" r="3.5" class="star-dot"/>
  <circle cx="712" cy="242.39999999999998" r="3.5" class="star-dot"/>
  <circle cx="732" cy="242.39999999999998" r="3.5" class="star-dot"/>
  <circle cx="752" cy="242.39999999999998" r="3.5" class="star-dot"/>
  <circle cx="772" cy="242.39999999999998" r="3.5" class="star-dot"/>
  <circle cx="792" cy="242.39999999999998" r="3.5" class="star-dot"/>
  <circle cx="812" cy="242.39999999999998" r="3.5" class="star-dot"/>
  <circle cx="832" cy="242.39999999999998" r="3.5" class="star-dot"/>
  <circle cx="852" cy="242.39999999999998" r="3.5" class="star-dot"/>
  <circle cx="872" cy="242.39999999999998" r="3.5" class="star-dot"/>
  <circle cx="892" cy="242.39999999999998" r="3.5" class="star-dot"/>
  <circle cx="912" cy="242.39999999999998" r="3.5" class="star-dot"/>
  <circle cx="932" cy="242.39999999999998" r="3.5" class="star-dot"/>
  <circle cx="72" cy="305.2" r="3.5" class="contributor-dot"/>
  <circle cx="92" cy="305.2" r="3.5" class="contributor-dot"/>
  <circle cx="112" cy="242.39999999999998" r="3.5" class="contributor-dot"/>
  <circle cx="132" cy="242.39999999999998" r="3.5" class="contributor-dot"/>
  <circle cx="152" cy="242.39999999999998" r="3.5" class="contributor-dot"/>
  <circle cx="172" cy="179.6" r="3.5" class="contributor-dot"/>
  <circle cx="192" cy="179.6" r="3.5" class="contributor-dot"/>
  <circle cx="212" cy="179.6" r="3.5" class="contributor-dot"/>
  <circle cx="232" cy="179.6" r="3.5" class="contributor-dot"/>
  <circle cx="252" cy="179.6" r="3.5" class="contributor-dot"/>
  <circle cx="272" cy="179.6" r="3.5" class="contributor-dot"/>
  <circle cx="292" cy="179.6" r="3.5" class="contributor-dot"/>
  <circle cx="312" cy="179.6" r="3.5" class="contributor-dot"/>
  <circle cx="332" cy="179.6" r="3.5" class="contributor-dot"/>
  <circle cx="352" cy="179.6" r="3.5" class="contributor-dot"/>
  <circle cx="372" cy="179.6" r="3.5" class="contributor-dot"/>
  <circle cx="392" cy="179.6" r="3.5" class="contributor-dot"/>
  <circle cx="412" cy="179.6" r="3.5" class="contributor-dot"/>
  <circle cx="432" cy="179.6" r="3.5" class="contributor-dot"/>
  <circle cx="452" cy="179.6" r="3.5" class="contributor-dot"/>
  <circle cx="472" cy="179.6" r="3.5" class="contributor-dot"/>
  <circle cx="492" cy="179.6" r="3.5" class="contributor-dot"/>
  <circle cx="512" cy="179.6" r="3.5" class="contributor-dot"/>
  <circle cx="532" cy="179.6" r="3.5" class="contributor-dot"/>
  <circle cx="552" cy="179.6" r="3.5" class="contributor-dot"/>
  <circle cx="572" cy="179.6" r="3.5" class="contributor-dot"/>
  <circle cx="592" cy="179.6" r="3.5" class="contributor-dot"/>
  <circle cx="612" cy="179.6" r="3.5" class="contributor-dot"/>
  <circle cx="632" cy="179.6" r="3.5" class="contributor-dot"/>
  <circle cx="652" cy="179.6" r="3.5" class="contributor-dot"/>
  <circle cx="672" cy="179.6" r="3.5" class="contributor-dot"/>
  <circle cx="692" cy="179.6" r="3.5" class="contributor-dot"/>
  <circle cx="712" cy="179.6" r="3.5" class="contributor-dot"/>
  <circle cx="732" cy="179.6" r="3.5" class="contributor-dot"/>
  <circle cx="752" cy="179.6" r="3.5" class="contributor-dot"/>
  <circle cx="772" cy="179.6" r="3.5" class="contributor-dot"/>
  <circle cx="792" cy="179.6" r="3.5" class="contributor-dot"/>
  <circle cx="812" cy="179.6" r="3.5" class="contributor-dot"/>
  <circle cx="832" cy="179.6" r="3.5" class="contributor-dot"/>
  <circle cx="852" cy="179.6" r="3.5" class="contributor-dot"/>
  <circle cx="872" cy="179.6" r="3.5" class="contributor-dot"/>
  <circle cx="892" cy="179.6" r="3.5" class="contributor-dot"/>
  <circle cx="912" cy="179.6" r="3.5" class="contributor-dot"/>
  <circle cx="932" cy="179.6" r="3.5" class="contributor-dot"/>
  <text x="72" y="408" text-anchor="middle" class="tick">2026-07-04</text>
<text x="492" y="408" text-anchor="middle" class="tick">2026-07-25</text>
<text x="932" y="408" text-anchor="middle" class="tick">2026-08-16</text>
  <circle cx="72" cy="430" r="5" class="star-dot"/>
  <text x="84" y="434" class="legend">GitHub stars (2)</text>
  <circle cx="247" cy="430" r="5" class="contributor-dot"/>
  <text x="259" y="434" class="legend">Current contributors (3)</text>
</svg>
