<?xml version="1.0" encoding="UTF-8"?>
<svg xmlns="http://www.w3.org/2000/svg" width="960" height="440" viewBox="0 0 960 440" role="img" aria-labelledby="title desc">
  <title id="title">SentryLoom GitHub community growth</title>
  <desc id="desc">Time-series lines for GitHub stars and current contributors. Latest values: 2 stars and 3 contributors.</desc>
  <style>
    .background{fill:#0d1117}.plot{fill:#161b22;stroke:#30363d}.grid{stroke:#30363d;stroke-width:1}.axis{stroke:#8b949e;stroke-width:1.2}
    .title{fill:#f0f6fc;font:700 22px "Segoe UI",Arial,sans-serif}.subtitle{fill:#8b949e;font:13px "Segoe UI",Arial,sans-serif}
    .tick{fill:#8b949e;font:11px "Segoe UI",Arial,sans-serif}.legend{fill:#c9d1d9;font:13px "Segoe UI",Arial,sans-serif}
    .stars{fill:none;stroke:#f2cc60;stroke-width:3;stroke-linejoin:round;stroke-linecap:round}
    .contributors{fill:none;stroke:#2f81f7;stroke-width:3;stroke-linejoin:round;stroke-linecap:round}
    .star-dot{fill:#f2cc60}.contributor-dot{fill:#2f81f7}
  </style>
  <rect width="100%" height="100%" rx="12" class="background"/>
  <text x="72" y="30" class="title">SentryLoom community growth</text>
  <text x="932" y="30" text-anchor="end" class="subtitle">Updated 2026-08-18</text>
  <rect x="72" y="54" width="860" height="314" rx="6" class="plot"/>
  <line x1="72" y1="368" x2="932" y2="368" class="grid"/>
      <text x="60" y="372" text-anchor="end" class="tick">0</text>
<line x1="72" y1="305.2" x2="932" y2="305.2" class="grid"/>
      <text x="60" y="309.2" text-anchor="end" class="tick">1</text>
<line x1="72" y1="242.39999999999998" x2="932" y2="242.39999999999998" class="grid"/>
      <text x="60" y="246.39999999999998" text-anchor="end" class="tick">2</text>
<line x1="72" y1="179.6" x2="932" y2="179.6" class="grid"/>
      <text x="60" y="183.6" text-anchor="end" class="tick">3</text>
<line x1="72" y1="116.79999999999998" x2="932" y2="116.79999999999998" class="grid"/>
      <text x="60" y="120.79999999999998" text-anchor="end" class="tick">4</text>
<line x1="72" y1="54" x2="932" y2="54" class="grid"/>
      <text x="60" y="58" text-anchor="end" class="tick">5</text>
  <line x1="72" y1="368" x2="932" y2="368" class="axis"/>
  <polyline points="72.0,368.0 91.1,305.2 110.2,305.2 129.3,305.2 148.4,305.2 167.6,305.2 186.7,305.2 205.8,305.2 224.9,305.2 244.0,305.2 263.1,305.2 282.2,305.2 301.3,305.2 320.4,305.2 339.6,305.2 358.7,305.2 377.8,305.2 396.9,305.2 416.0,305.2 435.1,305.2 454.2,305.2 473.3,305.2 492.4,305.2 511.6,305.2 530.7,242.4 549.8,242.4 568.9,242.4 588.0,242.4 607.1,242.4 626.2,242.4 645.3,242.4 664.4,242.4 683.6,242.4 702.7,242.4 721.8,242.4 740.9,242.4 760.0,242.4 779.1,242.4 798.2,242.4 817.3,242.4 836.4,242.4 855.6,242.4 874.7,242.4 893.8,242.4 912.9,242.4 932.0,242.4" class="stars"/>
  <polyline points="72.0,305.2 91.1,305.2 110.2,242.4 129.3,242.4 148.4,242.4 167.6,179.6 186.7,179.6 205.8,179.6 224.9,179.6 244.0,179.6 263.1,179.6 282.2,179.6 301.3,179.6 320.4,179.6 339.6,179.6 358.7,179.6 377.8,179.6 396.9,179.6 416.0,179.6 435.1,179.6 454.2,179.6 473.3,179.6 492.4,179.6 511.6,179.6 530.7,179.6 549.8,179.6 568.9,179.6 588.0,179.6 607.1,179.6 626.2,179.6 645.3,179.6 664.4,179.6 683.6,179.6 702.7,179.6 721.8,179.6 740.9,179.6 760.0,179.6 779.1,179.6 798.2,179.6 817.3,179.6 836.4,179.6 855.6,179.6 874.7,179.6 893.8,179.6 912.9,179.6 932.0,179.6" class="contributors"/>
  <circle cx="72" cy="368" r="3.5" class="star-dot"/>
  <circle cx="91.11111111111111" cy="305.2" r="3.5" class="star-dot"/>
  <circle cx="110.22222222222223" cy="305.2" r="3.5" class="star-dot"/>
  <circle cx="129.33333333333334" cy="305.2" r="3.5" class="star-dot"/>
  <circle cx="148.44444444444446" cy="305.2" r="3.5" class="star-dot"/>
  <circle cx="167.55555555555554" cy="305.2" r="3.5" class="star-dot"/>
  <circle cx="186.66666666666669" cy="305.2" r="3.5" class="star-dot"/>
  <circle cx="205.77777777777777" cy="305.2" r="3.5" class="star-dot"/>
  <circle cx="224.88888888888889" cy="305.2" r="3.5" class="star-dot"/>
  <circle cx="244" cy="305.2" r="3.5" class="star-dot"/>
  <circle cx="263.1111111111111" cy="305.2" r="3.5" class="star-dot"/>
  <circle cx="282.22222222222223" cy="305.2" r="3.5" class="star-dot"/>
  <circle cx="301.33333333333337" cy="305.2" r="3.5" class="star-dot"/>
  <circle cx="320.44444444444446" cy="305.2" r="3.5" class="star-dot"/>
  <circle cx="339.55555555555554" cy="305.2" r="3.5" class="star-dot"/>
  <circle cx="358.66666666666663" cy="305.2" r="3.5" class="star-dot"/>
  <circle cx="377.77777777777777" cy="305.2" r="3.5" class="star-dot"/>
  <circle cx="396.88888888888886" cy="305.2" r="3.5" class="star-dot"/>
  <circle cx="416" cy="305.2" r="3.5" class="star-dot"/>
  <circle cx="435.1111111111111" cy="305.2" r="3.5" class="star-dot"/>
  <circle cx="454.22222222222223" cy="305.2" r="3.5" class="star-dot"/>
  <circle cx="473.3333333333333" cy="305.2" r="3.5" class="star-dot"/>
  <circle cx="492.44444444444446" cy="305.2" r="3.5" class="star-dot"/>
  <circle cx="511.55555555555554" cy="305.2" r="3.5" class="star-dot"/>
  <circle cx="530.6666666666667" cy="242.39999999999998" r="3.5" class="star-dot"/>
  <circle cx="549.7777777777778" cy="242.39999999999998" r="3.5" class="star-dot"/>
  <circle cx="568.8888888888889" cy="242.39999999999998" r="3.5" class="star-dot"/>
  <circle cx="588" cy="242.39999999999998" r="3.5" class="star-dot"/>
  <circle cx="607.1111111111111" cy="242.39999999999998" r="3.5" class="star-dot"/>
  <circle cx="626.2222222222223" cy="242.39999999999998" r="3.5" class="star-dot"/>
  <circle cx="645.3333333333333" cy="242.39999999999998" r="3.5" class="star-dot"/>
  <circle cx="664.4444444444445" cy="242.39999999999998" r="3.5" class="star-dot"/>
  <circle cx="683.5555555555555" cy="242.39999999999998" r="3.5" class="star-dot"/>
  <circle cx="702.6666666666666" cy="242.39999999999998" r="3.5" class="star-dot"/>
  <circle cx="721.7777777777777" cy="242.39999999999998" r="3.5" class="star-dot"/>
  <circle cx="740.8888888888889" cy="242.39999999999998" r="3.5" class="star-dot"/>
  <circle cx="760" cy="242.39999999999998" r="3.5" class="star-dot"/>
  <circle cx="779.1111111111111" cy="242.39999999999998" r="3.5" class="star-dot"/>
  <circle cx="798.2222222222222" cy="242.39999999999998" r="3.5" class="star-dot"/>
  <circle cx="817.3333333333334" cy="242.39999999999998" r="3.5" class="star-dot"/>
  <circle cx="836.4444444444445" cy="242.39999999999998" r="3.5" class="star-dot"/>
  <circle cx="855.5555555555555" cy="242.39999999999998" r="3.5" class="star-dot"/>
  <circle cx="874.6666666666666" cy="242.39999999999998" r="3.5" class="star-dot"/>
  <circle cx="893.7777777777778" cy="242.39999999999998" r="3.5" class="star-dot"/>
  <circle cx="912.8888888888889" cy="242.39999999999998" r="3.5" class="star-dot"/>
  <circle cx="932" cy="242.39999999999998" r="3.5" class="star-dot"/>
  <circle cx="72" cy="305.2" r="3.5" class="contributor-dot"/>
  <circle cx="91.11111111111111" cy="305.2" r="3.5" class="contributor-dot"/>
  <circle cx="110.22222222222223" cy="242.39999999999998" r="3.5" class="contributor-dot"/>
  <circle cx="129.33333333333334" cy="242.39999999999998" r="3.5" class="contributor-dot"/>
  <circle cx="148.44444444444446" cy="242.39999999999998" r="3.5" class="contributor-dot"/>
  <circle cx="167.55555555555554" cy="179.6" r="3.5" class="contributor-dot"/>
  <circle cx="186.66666666666669" cy="179.6" r="3.5" class="contributor-dot"/>
  <circle cx="205.77777777777777" cy="179.6" r="3.5" class="contributor-dot"/>
  <circle cx="224.88888888888889" cy="179.6" r="3.5" class="contributor-dot"/>
  <circle cx="244" cy="179.6" r="3.5" class="contributor-dot"/>
  <circle cx="263.1111111111111" cy="179.6" r="3.5" class="contributor-dot"/>
  <circle cx="282.22222222222223" cy="179.6" r="3.5" class="contributor-dot"/>
  <circle cx="301.33333333333337" cy="179.6" r="3.5" class="contributor-dot"/>
  <circle cx="320.44444444444446" cy="179.6" r="3.5" class="contributor-dot"/>
  <circle cx="339.55555555555554" cy="179.6" r="3.5" class="contributor-dot"/>
  <circle cx="358.66666666666663" cy="179.6" r="3.5" class="contributor-dot"/>
  <circle cx="377.77777777777777" cy="179.6" r="3.5" class="contributor-dot"/>
  <circle cx="396.88888888888886" cy="179.6" r="3.5" class="contributor-dot"/>
  <circle cx="416" cy="179.6" r="3.5" class="contributor-dot"/>
  <circle cx="435.1111111111111" cy="179.6" r="3.5" class="contributor-dot"/>
  <circle cx="454.22222222222223" cy="179.6" r="3.5" class="contributor-dot"/>
  <circle cx="473.3333333333333" cy="179.6" r="3.5" class="contributor-dot"/>
  <circle cx="492.44444444444446" cy="179.6" r="3.5" class="contributor-dot"/>
  <circle cx="511.55555555555554" cy="179.6" r="3.5" class="contributor-dot"/>
  <circle cx="530.6666666666667" cy="179.6" r="3.5" class="contributor-dot"/>
  <circle cx="549.7777777777778" cy="179.6" r="3.5" class="contributor-dot"/>
  <circle cx="568.8888888888889" cy="179.6" r="3.5" class="contributor-dot"/>
  <circle cx="588" cy="179.6" r="3.5" class="contributor-dot"/>
  <circle cx="607.1111111111111" cy="179.6" r="3.5" class="contributor-dot"/>
  <circle cx="626.2222222222223" cy="179.6" r="3.5" class="contributor-dot"/>
  <circle cx="645.3333333333333" cy="179.6" r="3.5" class="contributor-dot"/>
  <circle cx="664.4444444444445" cy="179.6" r="3.5" class="contributor-dot"/>
  <circle cx="683.5555555555555" cy="179.6" r="3.5" class="contributor-dot"/>
  <circle cx="702.6666666666666" cy="179.6" r="3.5" class="contributor-dot"/>
  <circle cx="721.7777777777777" cy="179.6" r="3.5" class="contributor-dot"/>
  <circle cx="740.8888888888889" cy="179.6" r="3.5" class="contributor-dot"/>
  <circle cx="760" cy="179.6" r="3.5" class="contributor-dot"/>
  <circle cx="779.1111111111111" cy="179.6" r="3.5" class="contributor-dot"/>
  <circle cx="798.2222222222222" cy="179.6" r="3.5" class="contributor-dot"/>
  <circle cx="817.3333333333334" cy="179.6" r="3.5" class="contributor-dot"/>
  <circle cx="836.4444444444445" cy="179.6" r="3.5" class="contributor-dot"/>
  <circle cx="855.5555555555555" cy="179.6" r="3.5" class="contributor-dot"/>
  <circle cx="874.6666666666666" cy="179.6" r="3.5" class="contributor-dot"/>
  <circle cx="893.7777777777778" cy="179.6" r="3.5" class="contributor-dot"/>
  <circle cx="912.8888888888889" cy="179.6" r="3.5" class="contributor-dot"/>
  <circle cx="932" cy="179.6" r="3.5" class="contributor-dot"/>
  <text x="72" y="408" text-anchor="middle" class="tick">2026-07-04</text>
<text x="492.44444444444446" y="408" text-anchor="middle" class="tick">2026-07-26</text>
<text x="932" y="408" text-anchor="middle" class="tick">2026-08-18</text>
  <circle cx="72" cy="430" r="5" class="star-dot"/>
  <text x="84" y="434" class="legend">GitHub stars (2)</text>
  <circle cx="247" cy="430" r="5" class="contributor-dot"/>
  <text x="259" y="434" class="legend">Current contributors (3)</text>
</svg>
