<?xml version="1.0" encoding="UTF-8"?>
<svg xmlns="http://www.w3.org/2000/svg" width="960" height="440" viewBox="0 0 960 440" role="img" aria-labelledby="title desc">
  <title id="title">SentryLoom GitHub community growth</title>
  <desc id="desc">Time-series lines for GitHub stars and current contributors. Latest values: 2 stars and 3 contributors.</desc>
  <style>
    .background{fill:#0d1117}.plot{fill:#161b22;stroke:#30363d}.grid{stroke:#30363d;stroke-width:1}.axis{stroke:#8b949e;stroke-width:1.2}
    .title{fill:#f0f6fc;font:700 22px "Segoe UI",Arial,sans-serif}.subtitle{fill:#8b949e;font:13px "Segoe UI",Arial,sans-serif}
    .tick{fill:#8b949e;font:11px "Segoe UI",Arial,sans-serif}.legend{fill:#c9d1d9;font:13px "Segoe UI",Arial,sans-serif}
    .stars{fill:none;stroke:#f2cc60;stroke-width:3;stroke-linejoin:round;stroke-linecap:round}
    .contributors{fill:none;stroke:#2f81f7;stroke-width:3;stroke-linejoin:round;stroke-linecap:round}
    .star-dot{fill:#f2cc60}.contributor-dot{fill:#2f81f7}
  </style>
  <rect width="100%" height="100%" rx="12" class="background"/>
  <text x="72" y="30" class="title">SentryLoom community growth</text>
  <text x="932" y="30" text-anchor="end" class="subtitle">Updated 2026-08-05</text>
  <rect x="72" y="54" width="860" height="314" rx="6" class="plot"/>
  <line x1="72" y1="368" x2="932" y2="368" class="grid"/>
      <text x="60" y="372" text-anchor="end" class="tick">0</text>
<line x1="72" y1="305.2" x2="932" y2="305.2" class="grid"/>
      <text x="60" y="309.2" text-anchor="end" class="tick">1</text>
<line x1="72" y1="242.39999999999998" x2="932" y2="242.39999999999998" class="grid"/>
      <text x="60" y="246.39999999999998" text-anchor="end" class="tick">2</text>
<line x1="72" y1="179.6" x2="932" y2="179.6" class="grid"/>
      <text x="60" y="183.6" text-anchor="end" class="tick">3</text>
<line x1="72" y1="116.79999999999998" x2="932" y2="116.79999999999998" class="grid"/>
      <text x="60" y="120.79999999999998" text-anchor="end" class="tick">4</text>
<line x1="72" y1="54" x2="932" y2="54" class="grid"/>
      <text x="60" y="58" text-anchor="end" class="tick">5</text>
  <line x1="72" y1="368" x2="932" y2="368" class="axis"/>
  <polyline points="72.0,368.0 98.9,305.2 125.8,305.2 152.6,305.2 179.5,305.2 206.4,305.2 233.3,305.2 260.1,305.2 287.0,305.2 313.9,305.2 340.8,305.2 367.6,305.2 394.5,305.2 421.4,305.2 448.3,305.2 475.1,305.2 502.0,305.2 528.9,305.2 555.8,305.2 582.6,305.2 609.5,305.2 636.4,305.2 663.3,305.2 690.1,305.2 717.0,242.4 743.9,242.4 770.8,242.4 797.6,242.4 824.5,242.4 851.4,242.4 878.3,242.4 905.1,242.4 932.0,242.4" class="stars"/>
  <polyline points="72.0,305.2 98.9,305.2 125.8,242.4 152.6,242.4 179.5,242.4 206.4,179.6 233.3,179.6 260.1,179.6 287.0,179.6 313.9,179.6 340.8,179.6 367.6,179.6 394.5,179.6 421.4,179.6 448.3,179.6 475.1,179.6 502.0,179.6 528.9,179.6 555.8,179.6 582.6,179.6 609.5,179.6 636.4,179.6 663.3,179.6 690.1,179.6 717.0,179.6 743.9,179.6 770.8,179.6 797.6,179.6 824.5,179.6 851.4,179.6 878.3,179.6 905.1,179.6 932.0,179.6" class="contributors"/>
  <circle cx="72" cy="368" r="3.5" class="star-dot"/>
  <circle cx="98.875" cy="305.2" r="3.5" class="star-dot"/>
  <circle cx="125.75" cy="305.2" r="3.5" class="star-dot"/>
  <circle cx="152.625" cy="305.2" r="3.5" class="star-dot"/>
  <circle cx="179.5" cy="305.2" r="3.5" class="star-dot"/>
  <circle cx="206.375" cy="305.2" r="3.5" class="star-dot"/>
  <circle cx="233.25" cy="305.2" r="3.5" class="star-dot"/>
  <circle cx="260.125" cy="305.2" r="3.5" class="star-dot"/>
  <circle cx="287" cy="305.2" r="3.5" class="star-dot"/>
  <circle cx="313.875" cy="305.2" r="3.5" class="star-dot"/>
  <circle cx="340.75" cy="305.2" r="3.5" class="star-dot"/>
  <circle cx="367.625" cy="305.2" r="3.5" class="star-dot"/>
  <circle cx="394.5" cy="305.2" r="3.5" class="star-dot"/>
  <circle cx="421.375" cy="305.2" r="3.5" class="star-dot"/>
  <circle cx="448.25" cy="305.2" r="3.5" class="star-dot"/>
  <circle cx="475.125" cy="305.2" r="3.5" class="star-dot"/>
  <circle cx="502" cy="305.2" r="3.5" class="star-dot"/>
  <circle cx="528.875" cy="305.2" r="3.5" class="star-dot"/>
  <circle cx="555.75" cy="305.2" r="3.5" class="star-dot"/>
  <circle cx="582.625" cy="305.2" r="3.5" class="star-dot"/>
  <circle cx="609.5" cy="305.2" r="3.5" class="star-dot"/>
  <circle cx="636.375" cy="305.2" r="3.5" class="star-dot"/>
  <circle cx="663.25" cy="305.2" r="3.5" class="star-dot"/>
  <circle cx="690.125" cy="305.2" r="3.5" class="star-dot"/>
  <circle cx="717" cy="242.39999999999998" r="3.5" class="star-dot"/>
  <circle cx="743.875" cy="242.39999999999998" r="3.5" class="star-dot"/>
  <circle cx="770.75" cy="242.39999999999998" r="3.5" class="star-dot"/>
  <circle cx="797.625" cy="242.39999999999998" r="3.5" class="star-dot"/>
  <circle cx="824.5" cy="242.39999999999998" r="3.5" class="star-dot"/>
  <circle cx="851.375" cy="242.39999999999998" r="3.5" class="star-dot"/>
  <circle cx="878.25" cy="242.39999999999998" r="3.5" class="star-dot"/>
  <circle cx="905.125" cy="242.39999999999998" r="3.5" class="star-dot"/>
  <circle cx="932" cy="242.39999999999998" r="3.5" class="star-dot"/>
  <circle cx="72" cy="305.2" r="3.5" class="contributor-dot"/>
  <circle cx="98.875" cy="305.2" r="3.5" class="contributor-dot"/>
  <circle cx="125.75" cy="242.39999999999998" r="3.5" class="contributor-dot"/>
  <circle cx="152.625" cy="242.39999999999998" r="3.5" class="contributor-dot"/>
  <circle cx="179.5" cy="242.39999999999998" r="3.5" class="contributor-dot"/>
  <circle cx="206.375" cy="179.6" r="3.5" class="contributor-dot"/>
  <circle cx="233.25" cy="179.6" r="3.5" class="contributor-dot"/>
  <circle cx="260.125" cy="179.6" r="3.5" class="contributor-dot"/>
  <circle cx="287" cy="179.6" r="3.5" class="contributor-dot"/>
  <circle cx="313.875" cy="179.6" r="3.5" class="contributor-dot"/>
  <circle cx="340.75" cy="179.6" r="3.5" class="contributor-dot"/>
  <circle cx="367.625" cy="179.6" r="3.5" class="contributor-dot"/>
  <circle cx="394.5" cy="179.6" r="3.5" class="contributor-dot"/>
  <circle cx="421.375" cy="179.6" r="3.5" class="contributor-dot"/>
  <circle cx="448.25" cy="179.6" r="3.5" class="contributor-dot"/>
  <circle cx="475.125" cy="179.6" r="3.5" class="contributor-dot"/>
  <circle cx="502" cy="179.6" r="3.5" class="contributor-dot"/>
  <circle cx="528.875" cy="179.6" r="3.5" class="contributor-dot"/>
  <circle cx="555.75" cy="179.6" r="3.5" class="contributor-dot"/>
  <circle cx="582.625" cy="179.6" r="3.5" class="contributor-dot"/>
  <circle cx="609.5" cy="179.6" r="3.5" class="contributor-dot"/>
  <circle cx="636.375" cy="179.6" r="3.5" class="contributor-dot"/>
  <circle cx="663.25" cy="179.6" r="3.5" class="contributor-dot"/>
  <circle cx="690.125" cy="179.6" r="3.5" class="contributor-dot"/>
  <circle cx="717" cy="179.6" r="3.5" class="contributor-dot"/>
  <circle cx="743.875" cy="179.6" r="3.5" class="contributor-dot"/>
  <circle cx="770.75" cy="179.6" r="3.5" class="contributor-dot"/>
  <circle cx="797.625" cy="179.6" r="3.5" class="contributor-dot"/>
  <circle cx="824.5" cy="179.6" r="3.5" class="contributor-dot"/>
  <circle cx="851.375" cy="179.6" r="3.5" class="contributor-dot"/>
  <circle cx="878.25" cy="179.6" r="3.5" class="contributor-dot"/>
  <circle cx="905.125" cy="179.6" r="3.5" class="contributor-dot"/>
  <circle cx="932" cy="179.6" r="3.5" class="contributor-dot"/>
  <text x="72" y="408" text-anchor="middle" class="tick">2026-07-04</text>
<text x="502" y="408" text-anchor="middle" class="tick">2026-07-20</text>
<text x="932" y="408" text-anchor="middle" class="tick">2026-08-05</text>
  <circle cx="72" cy="430" r="5" class="star-dot"/>
  <text x="84" y="434" class="legend">GitHub stars (2)</text>
  <circle cx="247" cy="430" r="5" class="contributor-dot"/>
  <text x="259" y="434" class="legend">Current contributors (3)</text>
</svg>
