<?xml version="1.0" encoding="UTF-8"?>
<svg xmlns="http://www.w3.org/2000/svg" width="960" height="440" viewBox="0 0 960 440" role="img" aria-labelledby="title desc">
  <title id="title">SentryLoom GitHub community growth</title>
  <desc id="desc">Time-series lines for GitHub stars and current contributors. Latest values: 2 stars and 3 contributors.</desc>
  <style>
    .background{fill:#0d1117}.plot{fill:#161b22;stroke:#30363d}.grid{stroke:#30363d;stroke-width:1}.axis{stroke:#8b949e;stroke-width:1.2}
    .title{fill:#f0f6fc;font:700 22px "Segoe UI",Arial,sans-serif}.subtitle{fill:#8b949e;font:13px "Segoe UI",Arial,sans-serif}
    .tick{fill:#8b949e;font:11px "Segoe UI",Arial,sans-serif}.legend{fill:#c9d1d9;font:13px "Segoe UI",Arial,sans-serif}
    .stars{fill:none;stroke:#f2cc60;stroke-width:3;stroke-linejoin:round;stroke-linecap:round}
    .contributors{fill:none;stroke:#2f81f7;stroke-width:3;stroke-linejoin:round;stroke-linecap:round}
    .star-dot{fill:#f2cc60}.contributor-dot{fill:#2f81f7}
  </style>
  <rect width="100%" height="100%" rx="12" class="background"/>
  <text x="72" y="30" class="title">SentryLoom community growth</text>
  <text x="932" y="30" text-anchor="end" class="subtitle">Updated 2026-08-02</text>
  <rect x="72" y="54" width="860" height="314" rx="6" class="plot"/>
  <line x1="72" y1="368" x2="932" y2="368" class="grid"/>
      <text x="60" y="372" text-anchor="end" class="tick">0</text>
<line x1="72" y1="305.2" x2="932" y2="305.2" class="grid"/>
      <text x="60" y="309.2" text-anchor="end" class="tick">1</text>
<line x1="72" y1="242.39999999999998" x2="932" y2="242.39999999999998" class="grid"/>
      <text x="60" y="246.39999999999998" text-anchor="end" class="tick">2</text>
<line x1="72" y1="179.6" x2="932" y2="179.6" class="grid"/>
      <text x="60" y="183.6" text-anchor="end" class="tick">3</text>
<line x1="72" y1="116.79999999999998" x2="932" y2="116.79999999999998" class="grid"/>
      <text x="60" y="120.79999999999998" text-anchor="end" class="tick">4</text>
<line x1="72" y1="54" x2="932" y2="54" class="grid"/>
      <text x="60" y="58" text-anchor="end" class="tick">5</text>
  <line x1="72" y1="368" x2="932" y2="368" class="axis"/>
  <polyline points="72.0,368.0 101.7,305.2 131.3,305.2 161.0,305.2 190.6,305.2 220.3,305.2 249.9,305.2 279.6,305.2 309.2,305.2 338.9,305.2 368.6,305.2 398.2,305.2 427.9,305.2 457.5,305.2 487.2,305.2 516.8,305.2 546.5,305.2 576.1,305.2 605.8,305.2 635.4,305.2 665.1,305.2 694.8,305.2 724.4,305.2 754.1,305.2 783.7,242.4 813.4,242.4 843.0,242.4 872.7,242.4 902.3,242.4 932.0,242.4" class="stars"/>
  <polyline points="72.0,305.2 101.7,305.2 131.3,242.4 161.0,242.4 190.6,242.4 220.3,179.6 249.9,179.6 279.6,179.6 309.2,179.6 338.9,179.6 368.6,179.6 398.2,179.6 427.9,179.6 457.5,179.6 487.2,179.6 516.8,179.6 546.5,179.6 576.1,179.6 605.8,179.6 635.4,179.6 665.1,179.6 694.8,179.6 724.4,179.6 754.1,179.6 783.7,179.6 813.4,179.6 843.0,179.6 872.7,179.6 902.3,179.6 932.0,179.6" class="contributors"/>
  <circle cx="72" cy="368" r="3.5" class="star-dot"/>
  <circle cx="101.65517241379311" cy="305.2" r="3.5" class="star-dot"/>
  <circle cx="131.31034482758622" cy="305.2" r="3.5" class="star-dot"/>
  <circle cx="160.9655172413793" cy="305.2" r="3.5" class="star-dot"/>
  <circle cx="190.6206896551724" cy="305.2" r="3.5" class="star-dot"/>
  <circle cx="220.27586206896552" cy="305.2" r="3.5" class="star-dot"/>
  <circle cx="249.9310344827586" cy="305.2" r="3.5" class="star-dot"/>
  <circle cx="279.58620689655174" cy="305.2" r="3.5" class="star-dot"/>
  <circle cx="309.2413793103448" cy="305.2" r="3.5" class="star-dot"/>
  <circle cx="338.89655172413796" cy="305.2" r="3.5" class="star-dot"/>
  <circle cx="368.55172413793105" cy="305.2" r="3.5" class="star-dot"/>
  <circle cx="398.2068965517241" cy="305.2" r="3.5" class="star-dot"/>
  <circle cx="427.8620689655172" cy="305.2" r="3.5" class="star-dot"/>
  <circle cx="457.51724137931035" cy="305.2" r="3.5" class="star-dot"/>
  <circle cx="487.1724137931035" cy="305.2" r="3.5" class="star-dot"/>
  <circle cx="516.8275862068965" cy="305.2" r="3.5" class="star-dot"/>
  <circle cx="546.4827586206897" cy="305.2" r="3.5" class="star-dot"/>
  <circle cx="576.1379310344828" cy="305.2" r="3.5" class="star-dot"/>
  <circle cx="605.7931034482759" cy="305.2" r="3.5" class="star-dot"/>
  <circle cx="635.448275862069" cy="305.2" r="3.5" class="star-dot"/>
  <circle cx="665.1034482758621" cy="305.2" r="3.5" class="star-dot"/>
  <circle cx="694.7586206896552" cy="305.2" r="3.5" class="star-dot"/>
  <circle cx="724.4137931034483" cy="305.2" r="3.5" class="star-dot"/>
  <circle cx="754.0689655172414" cy="305.2" r="3.5" class="star-dot"/>
  <circle cx="783.7241379310344" cy="242.39999999999998" r="3.5" class="star-dot"/>
  <circle cx="813.3793103448276" cy="242.39999999999998" r="3.5" class="star-dot"/>
  <circle cx="843.0344827586207" cy="242.39999999999998" r="3.5" class="star-dot"/>
  <circle cx="872.6896551724137" cy="242.39999999999998" r="3.5" class="star-dot"/>
  <circle cx="902.344827586207" cy="242.39999999999998" r="3.5" class="star-dot"/>
  <circle cx="932" cy="242.39999999999998" r="3.5" class="star-dot"/>
  <circle cx="72" cy="305.2" r="3.5" class="contributor-dot"/>
  <circle cx="101.65517241379311" cy="305.2" r="3.5" class="contributor-dot"/>
  <circle cx="131.31034482758622" cy="242.39999999999998" r="3.5" class="contributor-dot"/>
  <circle cx="160.9655172413793" cy="242.39999999999998" r="3.5" class="contributor-dot"/>
  <circle cx="190.6206896551724" cy="242.39999999999998" r="3.5" class="contributor-dot"/>
  <circle cx="220.27586206896552" cy="179.6" r="3.5" class="contributor-dot"/>
  <circle cx="249.9310344827586" cy="179.6" r="3.5" class="contributor-dot"/>
  <circle cx="279.58620689655174" cy="179.6" r="3.5" class="contributor-dot"/>
  <circle cx="309.2413793103448" cy="179.6" r="3.5" class="contributor-dot"/>
  <circle cx="338.89655172413796" cy="179.6" r="3.5" class="contributor-dot"/>
  <circle cx="368.55172413793105" cy="179.6" r="3.5" class="contributor-dot"/>
  <circle cx="398.2068965517241" cy="179.6" r="3.5" class="contributor-dot"/>
  <circle cx="427.8620689655172" cy="179.6" r="3.5" class="contributor-dot"/>
  <circle cx="457.51724137931035" cy="179.6" r="3.5" class="contributor-dot"/>
  <circle cx="487.1724137931035" cy="179.6" r="3.5" class="contributor-dot"/>
  <circle cx="516.8275862068965" cy="179.6" r="3.5" class="contributor-dot"/>
  <circle cx="546.4827586206897" cy="179.6" r="3.5" class="contributor-dot"/>
  <circle cx="576.1379310344828" cy="179.6" r="3.5" class="contributor-dot"/>
  <circle cx="605.7931034482759" cy="179.6" r="3.5" class="contributor-dot"/>
  <circle cx="635.448275862069" cy="179.6" r="3.5" class="contributor-dot"/>
  <circle cx="665.1034482758621" cy="179.6" r="3.5" class="contributor-dot"/>
  <circle cx="694.7586206896552" cy="179.6" r="3.5" class="contributor-dot"/>
  <circle cx="724.4137931034483" cy="179.6" r="3.5" class="contributor-dot"/>
  <circle cx="754.0689655172414" cy="179.6" r="3.5" class="contributor-dot"/>
  <circle cx="783.7241379310344" cy="179.6" r="3.5" class="contributor-dot"/>
  <circle cx="813.3793103448276" cy="179.6" r="3.5" class="contributor-dot"/>
  <circle cx="843.0344827586207" cy="179.6" r="3.5" class="contributor-dot"/>
  <circle cx="872.6896551724137" cy="179.6" r="3.5" class="contributor-dot"/>
  <circle cx="902.344827586207" cy="179.6" r="3.5" class="contributor-dot"/>
  <circle cx="932" cy="179.6" r="3.5" class="contributor-dot"/>
  <text x="72" y="408" text-anchor="middle" class="tick">2026-07-04</text>
<text x="487.1724137931035" y="408" text-anchor="middle" class="tick">2026-07-18</text>
<text x="932" y="408" text-anchor="middle" class="tick">2026-08-02</text>
  <circle cx="72" cy="430" r="5" class="star-dot"/>
  <text x="84" y="434" class="legend">GitHub stars (2)</text>
  <circle cx="247" cy="430" r="5" class="contributor-dot"/>
  <text x="259" y="434" class="legend">Current contributors (3)</text>
</svg>
